<svg xmlns="http://www.w3.org/2000/svg" width="615.3" height="460" viewBox="0 0 615.3 460" xmlns:xlink="http://www.w3.org/1999/xlink">
	<g fill="none" stroke="#000" stroke-width="3" stroke-linecap="round" stroke-linejoin="round" stroke-miterlimit="10">
		<path d="M400.5 415.5c-3.2.4-6.2.9-9.4 1.5-.9.2-1.9.4-2.7.9-1 .7-1.6 1.9-2 3-.8 2.2-1.4 4.4-1.6 6.8-.4 4.2.8 9.2 4.5 11.2 2.5 1.4 5.4 1.2 8.3 1 3-.2 6.2-.6 8.5-2.6 1.3-1.1 2.1-2.7 2.6-4.2 1.1-3.4.5-7.3-1.5-10.2-2-3-5.2-5-8.8-5.5m31.6-13.6c-3.1.1-6.4.4-8.7 2.3-1.9 1.6-2.8 4-3 6.4s.2 4.8.6 7.2c.1.9.3 1.7.7 2.5.3.6.8 1 1.3 1.4 4.2 3.5 10.2 4.9 15.7 3.5 1.1-.3 2.2-.7 3.1-1.4 2.6-2.1 2.8-5.9 2.1-9.2s-2-6.4-4.1-9-5.1-4.4-8.5-4.9m-20.1 19.8c1.3-1.2 2.7-2.4 4.3-2.9 1.7-.5 3.7-.3 4.8 1.1m22.4-12.5c1-3.6 2.4-7.2 4.2-10.5 1.5-2.8 3.4-5.4 5.9-7.2s6-2.6 9-1.4c1.3.5 2.5 1.6 2.8 3" />
		<path d="M392.9 416.8c.8-1.8 1.6-3.5 2.4-5.3.9-2 1.7-3.8 2.9-5.6 2.7-4.3 6.6-7.7 10.9-10.3 1.2-.7 2.4-1.4 3.6-1.5 1.4 0 2.8.8 3.1 2.1" />
	</g>
	<g fill="none" stroke="#000" stroke-width="3" stroke-linecap="round" stroke-linejoin="round" stroke-miterlimit="10">
		<path d="M448.2 205.6c-4.9.9-9.9 1.8-14.9 2.7-1.7.3-3.4.6-4.8 1.6s-2.4 2.9-1.8 4.4c.7 1.9 3 2.7 4.9 3.1 3.5.8 7.1 1.6 10.6 1.2 3.3-.3 6.4-1.6 9.5-2.9 1.5-.6 3.2-1.4 3.9-2.8 1.1-1.9.2-4.3-1.5-5.6s-4-1.5-6.1-1.1" />
		<path d="M425.9 214c1.5 8.5 2.9 17.1 4.3 25.5.1.8.3 1.6.6 2.3.4.9 1.2 1.6 1.9 2.3 3.7 3.2 8.8 4.7 13.7 4.3s9.6-2.9 12.7-6.6" />
		<path d="M456.2 210.5c1.3 8.6 2.6 17.1 3.8 25.7.3 2.2.5 4.8-1.2 6.3" />
		<path d="M457.5 219.1c-.5-2.3 1.5-3.4 3.4-4.6 2.1-1.2 4.8-1 6.6.6 1.8 1.5 2.5 3.9 2.8 6.3.5 3.2.6 6.5-1.2 9.2-1.9 2.8-5.9 3.9-9 2.6" />
		<path d="M458.4 223.9c.8-1.7 1.4-5 3.2-5.4s3.9.5 4.6 2.3c.3.8.2 1.6.2 2.5-.1 1.9-.3 3.9-1.5 5.5-1.1 1.6-3.4 2.5-5 1.4" />
	</g>
	<g fill="none" stroke="#000" stroke-width="3" stroke-linecap="round" stroke-linejoin="round" stroke-miterlimit="10">
		<path d="M281.9 252.3c-2.3-.8-4.7-1.2-7.1-1.1-1 0-2.1.1-3 .6-1.2.6-2 1.7-2.6 2.8-2.1 3.7-2 8.6.1 12.2.9 1.5 2.1 2.9 2.8 4.4.9 1.9 1 4 1.6 6.1.6 2 2 4 4 4.4 2.6.4 4.8-1.9 6-4.2 2 2.5 5.2 4.5 8.2 3.3 2.9-1.2 3.7-4.6 4.4-7.6 1.1-4.2 2.5-8.4 4.3-12.3 1.2-2.6 2.6-5.5 1.5-8.2-.9-2.2-3.3-3.4-5.5-4.2-2.5-.9-5.2-1.4-7.8-1-2.7.4-5.2 1.8-6.5 4m.3 1.6c-.3-3.4-2.8-6.5-6-7.6" />
		<path d="M281.9 250.3c.2-2.1-.4-4.1.3-6.1s2.6-3.4 4.3-4.5c-.3 1.9.7 3.8.4 5.7-.4 2.2-2.3 3.5-4 4.8m-6.5 5.6c-1.6.3-3.5-.5-4.7.6-.7.6-.8 1.6-.8 2.5.1 1.5.6 2.9 1.4 4m2.7-6.3c-1.9 1.4-2.8 3.9-2.3 6.2" />
	</g>
	<path fill="none" stroke="#000" stroke-width="3" stroke-linecap="round" stroke-linejoin="round" stroke-miterlimit="10" d="M420.9 280.6c-.1-1.4 1.9-2.3 3.1-1.5 1.2.7 1.6 2.3 1.4 3.6-.2 1.6-1 3.1-2.3 3.9-.9.6-2 .8-3 1-8.1 1.7-16.2 3.4-24.2 5.1-1.4.3-3 .7-3.7 1.8-1.2 1.6-.5 3.9 1 5.2s3.4 1.8 5.3 2.3c10.2 2.5 20.5 4.8 30.7 7.3 4 1 8.9 1.8 12-1.1 1-.9 1.8-2.4 1.4-3.6-.3-1.1-1.3-1.9-2.2-2.6-4.2-3.3-8.5-6.4-12.6-9.7-.8-.6-1.7-1.3-2.3-2.1-.7-.9-1.2-1.8-1.7-2.8-.2-.6-.4-1.2-.2-1.8 0-.1 0-.1.1-.2h.1c.2 0 .4.1.7.1.2 0 .5 0 .6-.2v-.1c0-.1-.1-.1-.1-.2-.2-.1-.3-.2-.5-.3s-.3-.3-.2-.5.4-.2.7-.2.5-.1.8-.1c.1 0 .1 0 .2-.1s0-.4-.2-.5-.4-.1-.6-.2-.3-.3-.2-.5" />
	<g fill="none" stroke="#000" stroke-width="3" stroke-linecap="round" stroke-linejoin="round" stroke-miterlimit="10">
		<path d="M494.5 302.5c3.8 3.5 7.8 7.1 11.6 10.5 1.9 1.7 3.8 3.7 3.4 6.2-.8-.2-1.6-.4-2.5-.5-.5-.1-1-.2-1.4-.4s-.8-.6-1.2-.9c-4.3-3.9-8.7-8-13.1-11.9-.6-.5-1.1-1-1.3-1.8-.2-.9.3-1.9 1.1-2.3.8-.4 1.9-.1 2.4.7" />
		<path d="M496.3 303.5c1-1.6 2.1-3.3 1.8-5-.3-1.8-1.9-3.1-3.4-3.9-.8-.4-1.8-.8-2.7-.9-1.5-.1-3 .6-3.9 1.7-1.1 1-1.8 2.4-2.5 3.6-.5 1.1-1 2.3-.9 3.5.1 1.3.8 2.4 1.5 3.4 1 1.4 2.1 2.7 3.6 3.3 1.6.6 3.5.4 4.4-1" />
		<path d="M494.2 294.3c-1.4-.9-3.1-1-4.6-1-.7 0-1.4-.1-2.1.2-.5.2-1 .6-1.4 1-2.1 2.1-3.2 5-2.8 8 .4 2.9 2.4 5.5 5.1 6.5" />
		<path d="M482.1 300.8c-1.7-1.9-3.4-3.6-5.4-5-.4-.3-.8-.5-1-1s0-1 .3-1.5c1-1.9 2.6-3.4 4.5-4.3.3-.1.6-.3.9-.3 1.2-.2 2.4.6 3.4 1.4 1.2 1 2.4 1.9 3.5 2.9" />
		<path d="M484 289.3c.1-1.3.2-2.6.3-3.8 0-.4 0-.7-.1-1-.2-.4-.5-.6-.9-.8-1.6-1-3.4-2-5.3-1.8-2.3.2-4 2-5.3 3.8-1.1 1.6-2 3.4-2.2 5.3-.2 2 .5 4 2 5.2 1.5 1.3 3.9 1.4 5.3.1" />
	</g>
	<g fill="none" stroke="#000" stroke-width="3" stroke-linecap="round" stroke-linejoin="round" stroke-miterlimit="10">
		<path d="M284.5 218.2c2.4-4.1 4.7-8.4 7.6-12.2 3.4-4.5 7.6-8.7 10-13.9 2.2-4.6 2.7-9.9 4.9-14.5-2.3-3.4-6.8-4.2-10.7-4.7-3.3-.5-6.6-.9-9.9-.9-2.4 0-4.7.3-7.2.5-.7.1-1.4.2-1.9.6-.6.5-.8 1.4-.9 2.2-2.1 15 5.4 29.6 7.5 44.6" />
		<path d="M306.9 178.1c1.5.3 3.2 0 4.2-1.1 1.1-1.1 1.4-3 .4-4-.4-.4-.8-.7-1.3-1-9.9-5.7-22.1-7.3-32.9-4 .9 1.1 1.4 2.6.8 3.8-.5 1.3-2.3 2.1-3.4 1.2-1-.7-1-2.3-.3-3.3s2-1.4 3.3-1.3m22.2 13.9c.5.8 1 1.8.7 2.7-.2.6-.7.9-1.3 1.2-2.1.9-4.6-.1-5.7-2.1-.2-.3-.3-.7-.3-1 0-.8.7-1.4 1.4-1.8 1-.6 2.1-1 3.2-1s2.3.6 2.8 1.6m-15.2-2.2c.7 1.1 1.2 2.4 1 3.5-.2 1.3-1 2.5-2.3 2.8-.3.1-.6.1-.9 0-.2-.1-.4-.2-.6-.4-.6-.4-1.2-.9-1.8-1.3-.4-.3-.8-.6-1-1-.3-.6-.1-1.4.4-2 .5-.5 1.1-.9 1.8-1.2.8-.3 1.6-.6 2.4-.6s1.7.5 2 1.3m4.3 13.3c-.1.9-.8 1.7-1.7 2.1-.9.4-1.8.4-2.7.1-.6-.2-1.2-.5-1.6-1-.6-.8-.7-1.9-.3-2.8s1.2-1.6 2.1-2c.5-.2 1.2-.3 1.7-.1.3.1.5.4.7.6 1 1 2 2.1 2.2 3.4m-.6 10.1c-.9.8-2 1.4-3.1 1.8-.6.2-1.3.4-1.9.1-.2-.1-.4-.3-.6-.5-.7-.7-1.3-1.6-1.5-2.6s0-2.1.7-2.8c1.1-1 2.9-.8 4 .2 1.2 1 1.7 2.5 2 3.8" />
	</g>
	<g fill="none" stroke="#000" stroke-width="3" stroke-linecap="round" stroke-linejoin="round" stroke-miterlimit="10">
		<path d="M490.1 351.9c-1.6-.2-3.2 1.3-3.3 3s.8 3.3 2 4.3c1.1 1 2.6 1.7 4 1.8 1.5.1 3.1-.6 3.8-1.9.7-1.3.8-2.9.7-4.4 0-.4-.1-.9-.3-1.2s-.6-.5-.9-.7c-2-.9-4.1-1.4-6.3-1.4" />
		<path d="M484.7 348.6c-1.1.8-1.4 2.6-.6 3.6.8 1.1 2.5 1.5 3.6.9 1.2-.6 1.9-2.2 1.5-3.5 0-.2-.1-.3-.2-.4-.2-.1-.4-.1-.6-.1h-6" />
		<path d="M488.9 351c1.9-1.6 3.4-3.6 4.3-5.9.2-.4.4-.9.7-1.2 1.1-1 3 .1 4.2-.7m-8 8.1c1.3-.8 2.6-1.6 3.7-2.4 1.1-.7 2.1-1.4 3.4-1.6 1.2-.3 2.6 0 3.4 1m-9.4 2.7h9.4c1.5 0 3.4.2 4.1 1.5m-17.2.2c-2.6.4-4.7 2.5-7.3 3-.9.2-1.8.2-2.6.7s-1.1 1.7-.4 2.2m8.8-4.7c-1.5 1.6-3 3.2-4.4 4.7-.3.3-.6.6-.7 1-.2.5-.1 1 0 1.4.1 1.1 0 2.2-.4 3.3m5.2-8.5c-.3 2.3-.7 4.5-.5 6.7.2 2.3.9 4.5 2.5 6.2" />
		<path d="M488.4 353.1h-13c-.3 0-.6 0-.9.1s-.5.4-.6.7c-.7 1-1.4 2.1-2.1 3.1m18.3-7.5c-.8-1.5-1.4-3.2-1.8-4.8-.2-1.1-.2-2.4.7-3 .8-.4 2-.3 2.2-1.2m-2.4 12.8c-.3.6-.4 1.2-.4 1.9.4-.7.8-1.4 1.2-2-.5.9-.8 1.9-.9 3 .6-1.2 1.2-2.5 1.8-3.6.2 1.7 0 3.4-.4 4.9.5-1.6 1-3.1 1.8-4.4 0 1.8-.2 3.6-.4 5.4.4-1.7.9-3.4 1.3-5 .2 2 .1 4-.2 6 .8-1.9 1.6-3.6 2.4-5.5v4.7c.2-1.2.6-2.4 1.1-3.5 0 1.1 0 2.2-.2 3.3 0-.7.1-1.4-.1-2.1s-.5-1.4-1.1-1.8c-.9-.6-2.2-.4-3.2.2-.9.6-1.6 1.6-2.2 2.5-.1-1.3-.1-2.7.1-3.9-.3 1.6.3 3.4 1.5 4.4m-6.3-7.9c-.2.5-.3 1-.2 1.5.3-.4.6-.8.7-1.3v1.7c.2-.6.4-1.2.5-1.9v1.6c.4-.5.6-1.2.7-1.8.1.7.3 1.4.5 2.1.4-.3.6-.8.7-1.3v1" />
		<path d="M488.6 352.6c-.1 1.3-.2 2.6-.3 3.8.6-.8 1-1.7 1.2-2.7-.2 1.2.1 2.4.5 3.5.2.6.4 1.3.9 1.8.6.5 1.4.7 2.2.6.8-.2 1.5-.6 2-1.2.1.2.1.4 0 .6.8-1.9 1.4-3.8 1.7-5.8-.4.6-.7 1.2-1.1 1.9 0-1.3-.1-2.6-.4-3.8-.9.8-1.7 1.7-2.2 2.8-.3-.7-.7-1.4-1-2.1-.4 0-.5.5-.6.8s-.4.8-.7.6" />
		<path d="M485 349.9c1.3.2 2.6.2 3.8 0-.2 1.2-.2 2.4-.1 3.5.1 1.9.7 3.7 1.4 5.5-.7-.7-1.4-1.3-2.1-2 .5 1.3 2.2 1.9 3.3 1.2s1.5-2.1 1.7-3.3c0 1.8.3 3.4.8 5.1.4-2.1.7-4.1 1.1-6.3.1 1.2.3 2.4.4 3.6.1-1.2.1-2.4.2-3.6.4.6.7 1.4.7 2.1-1 .1-2-.1-3-.5.2-.3.4-.7.6-1-1.6 1.4-3.1 2.7-4.6 4-.2-.9-.1-1.9.4-2.7" />
	</g>
	<g fill="none" stroke="#000" stroke-width="3" stroke-linecap="round" stroke-linejoin="round" stroke-miterlimit="10">
		<path d="M145.8 258.2c6-.4 12 .5 17.6 2.5 2.4.8 4.6 1.9 6.3 3.6 2.8 2.9 3.4 7.1 3.4 11.1 0 1.9-.2 3.8-1 5.6-1.9 4.2-6.6 6.2-11.1 7.2-6.3 1.4-13.5 1.1-18.7-2.7-4.6-3.4-7.2-9.5-6.4-15.1.8-5.7 5-10.7 10.4-12.6" />
		<path d="M159.9 260.5c-.5 4.2-1 8.5-1.3 12.7-.1 1.4-.1 3 .9 3.9.6.6 1.5.8 2.4 1 2.8.6 5.7.7 8.5.4m-25.8-6c-3.4-.6-6.7-2.1-10-3.4-10.2-3.9-21.3-5.7-32.2-5.2m48.1-3.1c.3-9.7.1-19.4-.6-29.1m-35.1-15.3c-2.3.1-4.1 1.5-5.9 2.8-2 1.5-4.1 3.1-5.3 5.2-1.5 2.7-1.5 5.9-1.4 9 0 1.4.1 2.9.9 3.9 1.1 1.6 3.3 1.9 5.1 2.1" />
		<path d="M159.3 227.8c1.5.7 2.9 1.6 4 2.8 2.9 2.9 1.2 7.8-2.9 8.1-15.3 1.4-30.9-.3-45.5-5-.6-.2-1.1-.6-1.4-1.1-.5-1 .2-1.8.8-2.4 11.5-11.1 28.6-16.1 44.3-12.9m5 74.2c.7 4.4 1.8 8.9 3.4 13.1m-24.1-15.3c-.9 1.4-1.9 2.8-3 3.9m-10.2-.3c2.7.8 4.9 2.6 7.4 3.8 3.3 1.8 7 3 10.6 3.4m21.6 8c9.1-.4 18.1-1.7 26.9-3.8m-35.9.5c7 .6 14-.2 20.7-2.4" />
		<path d="M141.9 232.9c-3.1-.7-6-2-8.7-3.7-1-.6-2-1.6-1.8-2.7.2-1.3 1.8-1.8 3.2-1.9 4-.4 8.1-.5 12.2-.3m-44.4 32.2c3-1 6.6.1 8.5 2.7 2.1 2.8 1.9 6.9-.3 9.6-2.2 2.7-6.2 3.5-9.4 2.3-2.2-.9-3.9-2.9-4.6-5-.3-.9-.4-1.9-.1-2.9.2-.6.6-1.2 1.1-1.7 1.5-1.8 3.3-3.4 5.2-4.6m6 1.3c-2.9 3.1-5.5 6.2-8 9.6m.3-9.3l6.9 10.2m3.9-6.4c-3.8 2.4-8.5 3.4-13 3m0-4c2.8 2.1 5.7 3.9 8.8 5.6" />
	</g>
	<g fill="none" stroke="#000" stroke-width="3" stroke-linecap="round" stroke-linejoin="round" stroke-miterlimit="10">
		<path d="M232.1 226.5c-1.4-2.1-4.3-2.6-6.8-2.3s-5 .9-7.5.3c-3.1-.8-5.3-3.6-5.7-6.8-.5-3.1.7-6.3 2.8-8.7 1.3-1.6 3.1-2.9 5.1-3.2 1.9-.3 3.7.4 5.4 1.3 2.1 1.2 3.7 2.9 5 4.8 1.5 2.3 2.3 5 4.1 7 .6.7 1.3 1.2 1.7 2 .6 1.3.3 2.9-.5 4-.8 1.2-2 2.1-3.2 2.9" />
		<path d="M234.1 225.4l-2.1-1.5c-.5-.4-1.1-.8-1.4-1.3s-.3-1.3.2-1.8c.1-.1.2-.1.3-.1s.2.1.2.1c.2.1.4.2.5.4s0 .5-.2.6c-.1 0-.3 0-.4-.1-.5-.3-.9-.7-1.1-1.3-.1-.3-.1-.6 0-.8.2-.2.5-.3.8-.2s.5.3.8.5c1.1.9 2.2 1.9 3.3 2.8" />
		<path d="M232.8 227.3c.7 1.3 1.7 2.5 2.8 3.4.3.2.5.5.9.5.5.1 1.1-.2 1.5-.5.8-.7 1.6-1.5 2.1-2.4.2-.3.3-.6.3-.9.1-.5-.1-1.1-.4-1.6-.9-1.9-2.4-3.5-4-4.8m-.8 8.8c1.4-1.1 2.7-2.4 3.5-3.9m-4 2.9c1-1.5 1.9-3.1 2.7-4.6m.7 7.1c.6.1 1.3.1 1.8-.2.3-.1.7-.4.8-.7.3-.7-.1-1.4-.5-2" />
	</g>
	<g fill="none" stroke="#000" stroke-width="3" stroke-linecap="round" stroke-linejoin="round" stroke-miterlimit="10">
		<path d="M119.9 378.7c-4.4.6-9.1-.8-13.3.7-4.7 1.8-7.5 6.8-8.9 11.6-1.1 4.1-1.5 8.5-1.2 12.8.1 1.2.3 2.6 1.2 3.4.5.5 1.2.8 2 1 4.4 1.4 9.5 1 13.6-1.3s7.3-6.1 8.6-10.6c.5-1.6.7-3.4.3-5-.4-1.6-1.3-3.1-2.2-4.4-1.4-2.2-2.9-4.3-4.2-6.5m-6 10.2c-.6-9.5-.3-18.9.9-28.4m.3 5.5c5.7 1 9.9 5.8 14 9.9 7.9 7.8 17.1 13.8 26.4 19.8" />
		<path d="M110.1 363.9c12.4.2 24.8.1 37.3-.3l-.6 38.4" />
		<path d="M146.1 365.9c2.6.3 4.9 1.8 7 3.4 5.4 3.9 10.4 8.4 14.9 13.3M150.7 396c8.1 1.3 15.8-3.4 23.9-4.2" />
		<path d="M175.7 367.4c-3.6-.8-7.6 1.1-10.1 3.9s-3.7 6.6-4.4 10.2c-1.3 6.1-1.4 12.6 1.4 18.2 2.8 5.5 9 9.8 15.1 8.7 5.3-.9 9.4-5.4 11.2-10.4 1.9-5 1.8-10.5 1.5-15.9-.2-3.1-.4-6.1-1.4-8.9-2.2-6-9.1-10.6-15.2-8.6m-32.3 0v-12.8m-7.4.5h13.8m-39.5 10.8c.2-2.9.2-5.7-.7-8.4-.8-2.7-2.7-5.2-5.2-6.4-2.8-1.2-6.1-.7-8.5 1.1s-3.8 4.6-4.2 7.6c-.2 1.4 0 3.1 1 4 1.3 1.2 3.3.9 4.9.6" />
		<path d="M168 384.3c1.6-.4 3.1.8 4 2.2.9 1.3 1.6 2.9 2.8 3.9M142.4 403c1.7-.2 3.4.1 4.9.8" />
	</g>
	<g fill="none" stroke="#000" stroke-width="3" stroke-linecap="round" stroke-linejoin="round" stroke-miterlimit="10">
		<path d="M435 343.5c-3.4-1.2-7.4.2-10.1 2.7s-4.3 5.9-5.6 9.3c-1.3 3.2-2.4 6.6-1.9 10 .5 3.8 2.9 7.3 6 9.5 3.2 2.3 7 3.4 10.7 3.6 2 .2 4 .1 5.9-.4 1.7-.5 3.3-1.4 4.6-2.6 5.6-4.4 8.3-12.3 6.3-19.2s-8.8-12.1-15.9-12" />
		<path d="M420.5 354.6c4 3.1 6.7 8.1 6.2 13.1-.3 2.6-1.4 5-2.4 7.4m13.9-29.4c0 1.1.1 2.2.3 3.3.3 1.3.7 2.5 1.1 3.7.9 2.7 2 5.4 3.5 7.8s3.9 4.3 6.7 5c-.3-.1-.6-.2-.8-.3" />
		<path d="M417.6 364.7c1.6-.1 3.2-.2 4.8-.2 1.5-.1 2.9-.1 4.3-.4 1.6-.3 3.2-.8 4.7-1.2 3.3-1 6.6-2.1 9.6-3.7 3-1.7 5.6-4.2 6.9-7.4" />
		<path d="M426.9 343.1c.1 2.9 1.9 5.3 3.4 7.8 5 8 7.4 17.5 6.8 27 0 .2-.1.4-.2.4-.2 0-.2-.3-.1-.3" />
	</g>
	<path fill="#FFD139" d="M321.2 351.4c4.8-8.1 9-12.9 14.4-20.2 1.1-1.5 6.1-3.4 8-3.4 2.1 0 3.9 1.5 5.2 3.2 3.4 4.4 6.6 11.6 5.4 17.1s-6.6 9.5-10.8 13.2c3.4-3.3 6.7-6.4 10.2-9.7.8-.8 1.6-1.5 2.7-1.8 2.3-.7 4.4 1.2 5.8 3.1 11.5 15.2 4.3 23.7-4.9 30.2 2.9-2.6 5.6-5.1 8.5-7.6.6-.6 1.3-1.1 2.1-1.3 1.1-.2 2.2.3 3.2 1 8.5 5.8 10.2 19.4 3.5 27.3-2.6 3-5.9 5-9.2 7.1-8.3 5.1-16.4 10.5-23.6 17.1-13.8 12.7-16.9 15.9-33.7 24.1 0 0-2.3-.3-6-.7-5-.7-10-.7-14.9-1.7-23.7-8.9-47.3-23.7-73.9-14.8 10.8-12.8 30.6-21.7 30.7-40.9 1.1-3.1 2.1-6.1 2.7-8.7s1-4.7.8-6c-1.5-10.4-10.9-37.5-10.9-41.7 0-4.3-1.5-6.9-2.4-11.1-1-4.8.6-6.6 0-11.9-.5-4.9-1.8-17.6.4-22 6-2.4 14.2 0 18.7 4.6 5.6 5.7 6.4 14.2 8.8 21.9 1.3 4.2 2.1 8.7 3.4 13 3 10.2 5.2 11 12.8 18.5 2.4-.3 7.4-3.7 8.8-5.7 23.4-33.8 51.8-60.6 72.8-95.9.2-.3.3-.5.6-.8 8.4-11.2 26.1-2.4 22.4 11.1-.3 1-.6 2-.9 2.8-2.8 7.8-7.5 14.7-12.1 21.6-10.8 16.2-37.9 53.3-48.8 69.5l.2-.5z" />
	<path fill="none" stroke="#000" stroke-width="3" stroke-linecap="round" stroke-linejoin="round" stroke-miterlimit="10" d="M204.6 436.2l21.9-21.9c3.1-3.1 6.1-6.2 7.7-10.2 1.9-4.8 9.8-24.1 9.1-29.3-1.5-10.4-10.9-37.5-10.9-41.7 0-4.3-1.5-6.9-2.4-11.1-1-4.8.6-6.6 0-11.9-.5-4.9-1.8-17.6.4-22 6-2.4 14.2 0 18.7 4.6 5.6 5.7 6.4 14.2 8.8 21.9 1.3 4.2 2.1 8.7 3.4 13 3 10.2 5.2 11 12.8 18.5 2.4-.3 7.4-3.7 8.8-5.7 23.4-33.8 51.8-60.6 72.8-95.9.2-.3.3-.5.6-.8 8.4-11.2 26.1-2.4 22.4 11.1-.3 1-.6 2-.9 2.8-2.8 7.8-7.5 14.7-12.1 21.6-10.8 16.2-37.9 53.3-48.8 69.5" />
	<path fill="none" stroke="#000" stroke-width="3" stroke-linecap="round" stroke-linejoin="round" stroke-miterlimit="10" d="M317.3 348.5c4.8-8.1 9-12.9 14.4-20.2 1.1-1.5 6.1-3.4 8-3.4 2.1 0 3.9 1.5 5.2 3.2 3.4 4.4 6.6 11.6 5.4 17.1s-6.6 9.5-10.8 13.2c3.4-3.3 6.7-6.4 10.2-9.7.8-.8 1.6-1.5 2.7-1.8 2.3-.7 4.4 1.2 5.8 3.1 11.5 15.2 4.3 23.7-4.9 30.2 2.9-2.6 5.6-5.1 8.5-7.6.6-.6 1.3-1.1 2.1-1.3 1.1-.2 2.2.3 3.2 1 8.5 5.8 10.2 19.4 3.5 27.3-2.6 3-5.9 5-9.2 7.1-8.3 5.1-16.4 10.5-23.6 17.1-13.8 12.7-16.9 15.9-33.7 24.1" />
	<path fill="none" stroke="#000" stroke-width="3.596" stroke-linecap="round" stroke-linejoin="round" stroke-miterlimit="10" d="M366.4 223.8c-2.3-2.2-3.4-6.3-3.4-10.2s.7-7.5 1.3-11.2c.3-1.7.5-3.5-.1-5-.3-.8-.9-1.4-1.3-2.2-1.2-2-1.7-4.6-1.9-7.2-.4-4.3-.4-8.8.2-13" />
	<path fill="none" stroke="#000" stroke-width="3" stroke-linecap="round" stroke-linejoin="round" stroke-miterlimit="10" d="M232.6 329l4.6-1.7m-6.4-5.1c1.1.2 2.3.5 3.4.7m-.9 11.8c-.1-1.2.6-2.5 1.7-3.1m-4.5-43.7c.9 2.2 1.8 4.2 2.7 6.4 1.4 3.4 2.9 6.9 2.8 10.5s-1.8 7.6-5.2 9m125.1-60.6c1.5-4.3 4.7-8 8.9-10.1 1.2-.6 2.6-1.1 3.8-.7 1.7.5 2.7 2.3 3.4 3.8.9 2 1.7 4.1 1.8 6.3.1 2.6-.9 5.1-2.2 7.4-1.4 2.6-3.5 5.2-6.5 5.1-2.5-.1-4.4-2.2-5.8-4.3-1-1.6-1.9-3.2-2.6-4.8-.7-1.5-1.2-3.4-.3-4.7M331 297.5c1.9 3.2 4.4 6 7.5 8.1m-5.5-11.4c1.9 3.2 4.6 5.8 7.9 7.7m-3.6-8.1c1.5 2.4 4.3 3.4 5.9 5.7m-10.4-9.5c2.8-.1 5.5.9 7.7 2.5m-34.8 36.6c1.7 3.2 4.1 5.8 7.2 7.7" />
	<path fill="none" stroke="#000" stroke-width="3.596" stroke-linecap="round" stroke-linejoin="round" stroke-miterlimit="10" d="M376.8 232.3c-2-1.3-2.3-5-2.3-8 .1-5 .3-10.1.7-15 .2-2.2.4-4.4 0-6.7m-17 30.6c0-2.2-.8-4.1-1.5-6.1-1.7-5.2-1.9-11-2.1-16.8" />
</svg>
